<?xml version="1.0" encoding="UTF-8" standalone="no"?>
<svg
   version="1.0"
   width="1024.000000pt"
   height="1024.000000pt"
   viewBox="0 0 1024.000000 1024.000000"
   preserveAspectRatio="xMidYMid meet"
   id="svg4"
   sodipodi:docname="02027-3375134590-Genera un logo in svg per il mio software python che si chiama _Devliz_. si tratta di un software che da utility per i programma.svg"
   inkscape:version="1.4.2 (ebf0e94, 2025-05-08)"
   xmlns:inkscape="http://www.inkscape.org/namespaces/inkscape"
   xmlns:sodipodi="http://sodipodi.sourceforge.net/DTD/sodipodi-0.dtd"
   xmlns:xlink="http://www.w3.org/1999/xlink"
   xmlns="http://www.w3.org/2000/svg"
   xmlns:svg="http://www.w3.org/2000/svg">
  <defs
     id="defs4">
    <linearGradient
       id="linearGradient16"
       inkscape:collect="always">
      <stop
         style="stop-color:#000000;stop-opacity:1;"
         offset="0"
         id="stop15" />
      <stop
         style="stop-color:#000000;stop-opacity:0;"
         offset="1"
         id="stop16" />
    </linearGradient>
    <linearGradient
       id="linearGradient11"
       inkscape:collect="always">
      <stop
         style="stop-color:#000000;stop-opacity:1;"
         offset="0"
         id="stop11" />
      <stop
         style="stop-color:#000000;stop-opacity:0;"
         offset="1"
         id="stop12" />
    </linearGradient>
    <linearGradient
       id="linearGradient4">
      <stop
         style="stop-color:#000000;stop-opacity:1;"
         offset="0"
         id="stop6" />
      <stop
         style="stop-color:#a0a021;stop-opacity:0;"
         offset="1"
         id="stop7" />
    </linearGradient>
    <linearGradient
       id="linearGradient4-1">
      <stop
         style="stop-color:#000000;stop-opacity:1;"
         offset="0"
         id="stop4" />
      <stop
         style="stop-color:#a0a021;stop-opacity:0;"
         offset="1"
         id="stop5" />
    </linearGradient>
    <radialGradient
       inkscape:collect="always"
       xlink:href="#linearGradient11"
       id="radialGradient12"
       cx="5120"
       cy="5120"
       fx="5120"
       fy="5120"
       r="5120"
       gradientUnits="userSpaceOnUse" />
    <filter
       inkscape:collect="always"
       style="color-interpolation-filters:sRGB"
       id="filter12"
       x="-0.20236829"
       y="-0.20236829"
       width="1.4047366"
       height="1.4047366">
      <feGaussianBlur
         inkscape:collect="always"
         stdDeviation="863.43806"
         id="feGaussianBlur12" />
    </filter>
    <radialGradient
       inkscape:collect="always"
       xlink:href="#linearGradient16"
       id="radialGradient15"
       gradientUnits="userSpaceOnUse"
       cx="5120"
       cy="5120"
       fx="5120"
       fy="5120"
       r="5120" />
    <filter
       inkscape:collect="always"
       style="color-interpolation-filters:sRGB"
       id="filter16"
       x="-0.26532758"
       y="-0.26532758"
       width="1.5306552"
       height="1.5306552">
      <feGaussianBlur
         inkscape:collect="always"
         stdDeviation="1132.0643"
         id="feGaussianBlur16" />
    </filter>
  </defs>
  <sodipodi:namedview
     id="namedview4"
     pagecolor="#ffffff"
     bordercolor="#000000"
     borderopacity="0.25"
     inkscape:showpageshadow="2"
     inkscape:pageopacity="0.0"
     inkscape:pagecheckerboard="0"
     inkscape:deskcolor="#d1d1d1"
     inkscape:document-units="pt"
     inkscape:zoom="0.29553223"
     inkscape:cx="605.68691"
     inkscape:cy="729.1929"
     inkscape:window-width="1920"
     inkscape:window-height="1009"
     inkscape:window-x="-8"
     inkscape:window-y="-8"
     inkscape:window-maximized="1"
     inkscape:current-layer="g15" />
  <metadata
     id="metadata1">
Created by potrace 1.16, written by Peter Selinger 2001-2019
</metadata>
  <g
     transform="matrix(0.1,0,0,-0.1,0,1024)"
     fill="#000000"
     stroke="none"
     id="g4"
     style="display:none">
    <path
       fill="#000000"
       stroke="none"
       d="M 0,5120 V 0 h 5120 5120 v 5120 5120 H 5120 0 Z"
       id="path1"
       style="opacity:1;mix-blend-mode:normal;fill:url(#radialGradient12);fill-opacity:1;filter:url(#filter12)" />
    <path
       fill="#ffffff"
       stroke="none"
       d="M 4021,5255 V 4126 l -166,-165 -165,-166 v 1460 1460 l 165,-166 166,-165 z"
       id="path2" />
    <path
       fill="#ffffff"
       stroke="none"
       d="m 5513,6682 c 365,-77 640,-250 826,-522 74,-107 110,-180 154,-307 151,-431 121,-964 -74,-1344 -183,-357 -484,-580 -904,-669 -69,-15 -153,-23 -272,-27 l -173,-6 v 170 170 l 153,6 c 170,7 261,23 389,71 424,159 654,570 624,1116 -30,545 -277,884 -729,999 -122,32 -241,41 -519,41 h -268 v -350 -350 h -170 -170 v 408 408 l -105,104 c -58,56 -105,105 -105,107 0,2 278,3 618,1 595,-4 621,-5 725,-26 z"
       id="path3" />
    <path
       fill="#ffffff"
       stroke="none"
       d="m 4718,4298 2,-488 h -282 -283 l 113,110 112,109 v 375 c 0,242 4,376 10,378 6,2 81,3 168,3 h 157 z"
       id="path4" />
  </g>
  <g
     transform="matrix(0.14577073,0,0,-0.14577073,-224.19499,1258.3462)"
     fill="#000000"
     stroke="none"
     id="g15"
     style="display:inline"
     inkscape:groupmode="layer">
    <path
       fill="#000000"
       stroke="none"
       d="M 0,5120 V 0 h 5120 5120 v 5120 5120 H 5120 0 Z"
       id="path12"
       style="opacity:1;mix-blend-mode:normal;fill:url(#radialGradient15);fill-opacity:1;filter:url(#filter16)" />
    <path
       fill="#ffffff"
       stroke="none"
       d="M 4021,5255 V 4126 l -166,-165 -165,-166 v 1460 1460 l 165,-166 166,-165 z"
       id="path13" />
    <path
       fill="#ffffff"
       stroke="none"
       d="m 5513,6680.6932 c 365,-80.7144 640,-262.0606 826,-547.1821 74,-112.1615 110,-188.683 154,-321.8097 151,-451.7917 121,-1010.5045 -74,-1408.8362 -183,-374.2218 -484,-607.9798 -904,-701.273 -69,-15.724 -153,-24.1095 -272,-28.3029 l -173,-6.2891 v 178.2007 178.2011 l 153,6.2897 c 170,7.3377 261,24.109 389,74.4251 424,166.6703 654,597.4973 624,1169.8365 -30,571.2916 -277,926.6453 -729,1047.1932 -122,33.5435 -241,42.9775 -519,42.9775 H 4720 V 5997.24 5630.3557 h -170 -170 v 427.6821 427.6823 l -105,109.0172 c -58,58.7016 -105,110.0654 -105,112.1621 0,2.0967 278,3.1443 618,1.0481 595,-4.193 621,-5.2415 725,-27.2543 z"
       id="path14"
       style="stroke-width:1.0238" />
    <path
       fill="#ffffff"
       stroke="none"
       d="m 4718,4298 2,-488 h -282 -283 l 113,110 112,109 v 375 c 0,242 4,376 10,378 6,2 81,3 168,3 h 157 z"
       id="path15" />
  </g>
</svg>
