<?xml version="1.0" standalone="no"?>
<!DOCTYPE svg PUBLIC "-//W3C//DTD SVG 20010904//EN"
 "http://www.w3.org/TR/2001/REC-SVG-20010904/DTD/svg10.dtd">
<svg version="1.0" xmlns="http://www.w3.org/2000/svg"
 width="1024.000000pt" height="1024.000000pt" viewBox="0 0 1024.000000 1024.000000"
 preserveAspectRatio="xMidYMid meet">
<metadata>
Created by potrace 1.16, written by Peter Selinger 2001-2019
</metadata>
<g transform="translate(0.000000,1024.000000) scale(0.100000,-0.100000)"
fill="#000000" stroke="none">
<path fill="#000000" stroke="none" d="M0 5120 l0 -5120 5120 0 5120 0 0 5120
0 5120 -5120 0 -5120 0 0 -5120z"/>
<path fill="#ffffff" stroke="none" d="M4021 5255 l0 -1129 -166 -165 -165
-166 0 1460 0 1460 165 -166 166 -165 0 -1129z"/>
<path fill="#ffffff" stroke="none" d="M5513 6682 c365 -77 640 -250 826 -522
74 -107 110 -180 154 -307 151 -431 121 -964 -74 -1344 -183 -357 -484 -580
-904 -669 -69 -15 -153 -23 -272 -27 l-173 -6 0 170 0 170 153 6 c170 7 261
23 389 71 424 159 654 570 624 1116 -30 545 -277 884 -729 999 -122 32 -241
41 -519 41 l-268 0 0 -350 0 -350 -170 0 -170 0 0 408 0 408 -105 104 c-58 56
-105 105 -105 107 0 2 278 3 618 1 595 -4 621 -5 725 -26z"/>
<path fill="#ffffff" stroke="none" d="M4718 4298 l2 -488 -282 0 -283 0 113
110 112 109 0 375 c0 242 4 376 10 378 6 2 81 3 168 3 l157 0 3 -487z"/>
</g>
</svg>
